<svg viewBox="0 0 243 243" fill="none" xmlns="http://www.w3.org/2000/svg">
<path d="M243 121.5C243 188.603 188.603 243 121.5 243C54.3974 243 0 188.603 0 121.5C0 54.3974 54.3974 0 121.5 0C188.603 0 243 54.3974 243 121.5Z" fill="#DD4545"/>
<path fill-rule="evenodd" clip-rule="evenodd" d="M121.5 239.545C186.694 239.545 239.545 186.694 239.545 121.5C239.545 56.3055 186.694 3.45498 121.5 3.45498C56.3055 3.45498 3.45498 56.3055 3.45498 121.5C3.45498 186.694 56.3055 239.545 121.5 239.545ZM121.5 243C188.603 243 243 188.603 243 121.5C243 54.3974 188.603 0 121.5 0C54.3974 0 0 54.3974 0 121.5C0 188.603 54.3974 243 121.5 243Z" fill="black"/>
<path d="M223.422 122.076C223.422 178.048 178.048 223.422 122.076 223.422C66.104 223.422 20.7299 178.048 20.7299 122.076C20.7299 66.104 66.104 20.7299 122.076 20.7299C178.048 20.7299 223.422 66.104 223.422 122.076Z" fill="#EFEFEF"/>
<path fill-rule="evenodd" clip-rule="evenodd" d="M122.076 221.118C176.776 221.118 221.118 176.776 221.118 122.076C221.118 67.3761 176.776 23.0332 122.076 23.0332C67.3761 23.0332 23.0332 67.3761 23.0332 122.076C23.0332 176.776 67.3761 221.118 122.076 221.118ZM122.076 223.422C178.048 223.422 223.422 178.048 223.422 122.076C223.422 66.104 178.048 20.7299 122.076 20.7299C66.104 20.7299 20.7299 66.104 20.7299 122.076C20.7299 178.048 66.104 223.422 122.076 223.422Z" fill="black"/>
<path d="M194.63 121.5C194.63 161.889 161.889 194.63 121.5 194.63C81.1112 194.63 48.3697 161.889 48.3697 121.5C48.3697 81.1112 81.1112 48.3697 121.5 48.3697C161.889 48.3697 194.63 81.1112 194.63 121.5Z" fill="#DD4545"/>
<path fill-rule="evenodd" clip-rule="evenodd" d="M121.5 193.479C161.253 193.479 193.479 161.253 193.479 121.5C193.479 81.7473 161.253 49.5213 121.5 49.5213C81.7473 49.5213 49.5213 81.7473 49.5213 121.5C49.5213 161.253 81.7473 193.479 121.5 193.479ZM121.5 194.63C161.889 194.63 194.63 161.889 194.63 121.5C194.63 81.1112 161.889 48.3697 121.5 48.3697C81.1112 48.3697 48.3697 81.1112 48.3697 121.5C48.3697 161.889 81.1112 194.63 121.5 194.63Z" fill="black"/>
<path d="M122.557 40.3081L204.806 122.557L122.557 204.806L40.3083 122.557L122.557 40.3081Z" fill="#EFEFEF"/>
<path fill-rule="evenodd" clip-rule="evenodd" d="M201.549 122.557L122.557 43.5654L43.5657 122.557L122.557 201.549L201.549 122.557ZM122.557 40.3081L40.3083 122.557L122.557 204.806L204.806 122.557L122.557 40.3081Z" fill="black"/>
<path d="M122.779 168.143L214.209 74.9896L197.698 46.0664L122.779 135.506L92.6625 106.974L74.8578 120.527L122.779 168.143Z" fill="#E50118"/>
<path fill-rule="evenodd" clip-rule="evenodd" d="M122.799 171.411L71.3579 120.296L92.8253 103.956L122.585 132.15L198.057 42.0502L217.072 75.3601L122.799 171.411ZM122.779 135.506L92.6625 106.974L74.8578 120.527L122.779 168.143L214.209 74.9896L197.698 46.0664L122.779 135.506Z" fill="black"/>
</svg>
