<svg width="154" height="49" viewBox="0 0 154 49" fill="none" xmlns="http://www.w3.org/2000/svg">
    <path d="M154 24.5C154 38.031 143.031 49 129.5 49C115.969 49 105 38.031 105 24.5C105 10.969 115.969 0 129.5 0C143.031 0 154 10.969 154 24.5Z" fill="#DD4545"/>
    <path fill-rule="evenodd" clip-rule="evenodd" d="M129.5 48.3033C142.646 48.3033 153.303 37.6462 153.303 24.5C153.303 11.3538 142.646 0.696682 129.5 0.696682C116.354 0.696682 105.697 11.3538 105.697 24.5C105.697 37.6462 116.354 48.3033 129.5 48.3033ZM129.5 49C143.031 49 154 38.031 154 24.5C154 10.969 143.031 0 129.5 0C115.969 0 105 10.969 105 24.5C105 38.031 115.969 49 129.5 49Z" fill="black"/>
    <path d="M150.052 24.6161C150.052 35.9026 140.903 45.0521 129.616 45.0521C118.33 45.0521 109.18 35.9026 109.18 24.6161C109.18 13.3296 118.33 4.18009 129.616 4.18009C140.903 4.18009 150.052 13.3296 150.052 24.6161Z" fill="#EFEFEF"/>
    <path fill-rule="evenodd" clip-rule="evenodd" d="M129.616 44.5877C140.646 44.5877 149.588 35.6461 149.588 24.6161C149.588 13.5861 140.646 4.64455 129.616 4.64455C118.586 4.64455 109.645 13.5861 109.645 24.6161C109.645 35.6461 118.586 44.5877 129.616 44.5877ZM129.616 45.0521C140.903 45.0521 150.052 35.9026 150.052 24.6161C150.052 13.3296 140.903 4.18009 129.616 4.18009C118.33 4.18009 109.18 13.3296 109.18 24.6161C109.18 35.9026 118.33 45.0521 129.616 45.0521Z" fill="black"/>
    <path d="M144.246 24.5C144.246 32.6442 137.644 39.2464 129.5 39.2464C121.356 39.2464 114.754 32.6442 114.754 24.5C114.754 16.3558 121.356 9.75355 129.5 9.75355C137.644 9.75355 144.246 16.3558 144.246 24.5Z" fill="#DD4545"/>
    <path fill-rule="evenodd" clip-rule="evenodd" d="M129.5 39.0142C137.516 39.0142 144.014 32.516 144.014 24.5C144.014 16.484 137.516 9.98578 129.5 9.98578C121.484 9.98578 114.986 16.484 114.986 24.5C114.986 32.516 121.484 39.0142 129.5 39.0142ZM129.5 39.2464C137.644 39.2464 144.246 32.6442 144.246 24.5C144.246 16.3558 137.644 9.75355 129.5 9.75355C121.356 9.75355 114.754 16.3558 114.754 24.5C114.754 32.6442 121.356 39.2464 129.5 39.2464Z" fill="black"/>
    <path d="M129.713 8.12796L146.298 24.7131L129.713 41.2983L113.128 24.7131L129.713 8.12796Z" fill="#EFEFEF"/>
    <path fill-rule="evenodd" clip-rule="evenodd" d="M145.642 24.7131L129.713 8.7848L113.785 24.7131L129.713 40.6415L145.642 24.7131ZM129.713 8.12796L113.128 24.7131L129.713 41.2983L146.298 24.7131L129.713 8.12796Z" fill="black"/>
    <path d="M129.758 33.9054L148.194 15.1214L144.865 9.2891L129.758 27.3242L123.685 21.5709L120.095 24.3037L129.758 33.9054Z" fill="#E50118"/>
    <path fill-rule="evenodd" clip-rule="evenodd" d="M129.762 34.5643L119.389 24.2572L123.718 20.9622L129.719 26.6475L144.937 8.47925L148.772 15.1961L129.762 34.5643ZM129.758 27.3242L123.685 21.5709L120.095 24.3037L129.758 33.9054L148.194 15.1214L144.865 9.2891L129.758 27.3242Z" fill="black"/>
    <path d="M96.7249 35.2096C96.7249 39.6651 95.5948 43.0774 93.3345 45.4464C91.0959 47.8155 87.8577 49 83.6196 49C79.4685 49 75.9368 48.185 73.0246 46.5549V37.7851C76.5888 40.1107 79.8597 41.2735 82.8372 41.2735C84.5324 41.2735 85.8038 40.8062 86.6514 39.8716C87.5208 38.937 87.9555 37.6656 87.9555 36.0572C87.9555 34.4706 87.4447 33.0253 86.4232 31.7212C85.4018 30.3954 83.7174 28.9284 81.3702 27.32C79.3273 25.9073 77.7733 24.5598 76.7084 23.2774C75.6652 21.9734 74.8502 20.5172 74.2634 18.9088C73.6983 17.3005 73.4158 15.4314 73.4158 13.3014C73.4158 9.21535 74.5459 5.97693 76.8062 3.58616C79.0882 1.19539 82.1417 0 85.9668 0C89.6181 0 93.128 1.02151 96.4967 3.06454L93.5627 10.1717C92.5195 9.56309 91.422 9.01974 90.2701 8.54158C89.1399 8.06343 87.9229 7.82435 86.6189 7.82435C85.1844 7.82435 84.076 8.30251 83.2936 9.25882C82.533 10.1934 82.1526 11.4757 82.1526 13.1058C82.1526 14.7141 82.609 16.116 83.5218 17.3114C84.4564 18.5068 86.0755 19.8652 88.3793 21.3866C91.4872 23.4731 93.6496 25.603 94.8667 27.7764C96.1055 29.9499 96.7249 32.4276 96.7249 35.2096Z" fill="black"/>
    <path d="M68.0367 24.0599C68.0367 31.9277 66.4284 37.9481 63.2119 42.1211C60.0171 46.2723 55.4095 48.348 49.3894 48.348H37.7185V0.68463H50.4652C56.0072 0.68463 60.3213 2.73852 63.4075 6.84631C66.4936 10.9324 68.0367 16.6702 68.0367 24.0599ZM58.9412 24.3207C58.9412 13.6709 56.0072 8.34598 50.1392 8.34598H46.5857V40.5888H49.4546C52.6929 40.5888 55.0835 39.2413 56.6266 36.5462C58.1697 33.8295 58.9412 29.7543 58.9412 24.3207Z" fill="black"/>
    <path d="M15.8763 21.9082H30.4486V46.3593C26.3193 48.1198 21.9291 49 17.2781 49C11.7361 49 7.46545 46.8918 4.46623 42.6753C1.48874 38.4589 0 32.3841 0 24.4511C0 16.8006 1.70608 10.8128 5.11824 6.48769C8.55213 2.16256 13.3444 0 19.4949 0C23.2983 0 26.9278 0.978044 30.3834 2.93413L27.5798 10.1717C24.8849 8.60679 22.3638 7.82435 20.0166 7.82435C16.6479 7.82435 13.9746 9.33489 11.9969 12.356C10.0409 15.3553 9.06287 19.4522 9.06287 24.6467C9.06287 29.9933 9.76921 34.0903 11.1819 36.9375C12.6163 39.7847 14.6918 41.2082 17.4085 41.2082C18.8429 41.2082 20.2991 41.0235 21.777 40.654V29.7325H15.8763V21.9082Z" fill="black"/>
</svg>
